<svg version="1.1" id="Layer_1" xmlns="http://www.w3.org/2000/svg" xmlns:xlink="http://www.w3.org/1999/xlink" x="0px" y="0px"
	 width="100%" viewBox="0 0 1200 1201" enable-background="new 0 0 1200 1201" xml:space="preserve">
<path fill="#000000" opacity="1.000000" stroke="none" 
	d="
M1.000000,457.000000 
	C1.000000,304.666656 1.000000,152.833328 1.000000,1.000000 
	C401.000000,1.000000 801.000000,1.000000 1201.000000,1.000000 
	C1201.000000,401.333344 1201.000000,801.666687 1201.000000,1202.000000 
	C801.000000,1202.000000 401.000000,1202.000000 1.000000,1202.000000 
	C1.000000,953.833313 1.000000,705.666687 1.000000,457.000000 
M1058.024658,139.188248 
	C1057.120483,135.731354 1056.422119,132.204681 1055.277710,128.829269 
	C1049.278931,111.136093 1039.228638,96.224625 1025.322266,83.627083 
	C1015.784180,74.986725 1005.036743,68.619263 993.224060,64.074501 
	C976.607483,57.681450 959.439148,55.585175 941.588379,57.848083 
	C929.279785,59.408421 917.598267,62.737877 906.739746,68.324577 
	C893.681641,75.043015 882.044617,83.815384 872.842896,95.584030 
	C862.447571,108.879395 854.841919,123.410019 850.763977,140.035507 
	C849.597412,140.023438 848.430847,140.000793 847.264282,140.000793 
	C599.285645,139.999207 351.307068,139.999191 103.328445,139.999390 
	C102.495186,139.999390 101.660767,139.974899 100.828842,140.009216 
	C81.470352,140.808121 68.896973,153.275375 68.904984,172.476761 
	C69.038658,492.615753 69.068810,812.754883 68.818275,1132.893799 
	C68.804291,1150.765259 82.698723,1165.224976 101.308800,1165.208862 
	C434.446472,1164.921021 767.584534,1164.921753 1100.722290,1165.207520 
	C1119.296631,1165.223389 1133.197021,1150.773804 1133.182983,1132.863770 
	C1132.931030,812.558228 1133.000000,492.252502 1132.999634,171.946793 
	C1132.999634,170.446945 1133.165039,168.923294 1132.961182,167.451172 
	C1131.781616,158.929810 1128.295166,151.780258 1121.192139,146.444717 
	C1114.878662,141.702286 1107.653564,140.227310 1100.161621,140.079620 
	C1086.168335,139.803772 1072.165649,139.998993 1058.024658,139.188248 
z"/>
<path fill="#1D2D68" opacity="1.000000" stroke="none" 
	d="
M1058.166870,139.998199 
	C1072.165649,139.998993 1086.168335,139.803772 1100.161621,140.079620 
	C1107.653564,140.227310 1114.878662,141.702286 1121.192139,146.444717 
	C1128.295166,151.780258 1131.781616,158.929810 1132.961182,167.451172 
	C1133.165039,168.923294 1132.999634,170.446945 1132.999634,171.946793 
	C1133.000000,492.252502 1132.931030,812.558228 1133.182983,1132.863770 
	C1133.197021,1150.773804 1119.296631,1165.223389 1100.722290,1165.207520 
	C767.584534,1164.921753 434.446472,1164.921021 101.308800,1165.208862 
	C82.698723,1165.224976 68.804291,1150.765259 68.818275,1132.893799 
	C69.068810,812.754883 69.038658,492.615753 68.904984,172.476761 
	C68.896973,153.275375 81.470352,140.808121 100.828842,140.009216 
	C101.660767,139.974899 102.495186,139.999390 103.328445,139.999390 
	C351.307068,139.999191 599.285645,139.999207 847.264282,140.000793 
	C848.430847,140.000793 849.597412,140.023438 851.246216,140.455017 
	C848.083618,154.962234 848.862976,169.069351 851.035156,183.176636 
	C607.201965,183.162720 363.876495,183.156891 120.551010,183.151611 
	C111.995361,183.151413 111.993965,183.153992 111.993958,191.888077 
	C111.993713,499.045135 111.993752,806.202209 111.993805,1113.359253 
	C111.993805,1114.359253 112.105881,1115.373779 111.975983,1116.356567 
	C111.398766,1120.723145 113.205414,1122.601074 117.611336,1122.021240 
	C118.758064,1121.870483 119.941589,1122.000000 121.108223,1122.000000 
	C441.098206,1122.000122 761.088135,1122.001831 1081.078125,1121.991577 
	C1090.833862,1121.991333 1089.998535,1122.906494 1089.998901,1113.172974 
	C1090.007568,806.015930 1090.005981,498.858856 1090.005859,191.701782 
	C1090.005859,190.535156 1089.888794,189.355087 1090.023315,188.204315 
	C1090.496826,184.155365 1088.536499,183.016190 1084.761353,183.099014 
	C1075.932373,183.292755 1067.096924,183.193527 1058.252808,182.789749 
	C1058.859131,175.195587 1059.961060,168.024277 1059.956177,160.853714 
	C1059.951294,153.901474 1058.809326,146.950012 1058.166870,139.998199 
z"/>
<path fill="#FF7700" opacity="1.000000" stroke="none" 
	d="
M1058.095703,139.593231 
	C1058.809326,146.950012 1059.951294,153.901474 1059.956177,160.853714 
	C1059.961060,168.024277 1058.859131,175.195587 1058.119385,183.143311 
	C1057.111572,187.225555 1056.379150,190.581192 1055.317383,193.829102 
	C1040.052979,240.516251 1000.761597,265.428589 957.138428,267.732391 
	C947.653687,268.233276 937.677734,266.436005 928.461731,263.818298 
	C887.175903,252.091385 861.635376,224.894485 851.542908,183.184799 
	C848.862976,169.069351 848.083618,154.962234 851.692505,140.483368 
	C854.841919,123.410019 862.447571,108.879395 872.842896,95.584030 
	C882.044617,83.815384 893.681641,75.043015 906.739746,68.324577 
	C917.598267,62.737877 929.279785,59.408421 941.588379,57.848083 
	C959.439148,55.585175 976.607483,57.681450 993.224060,64.074501 
	C1005.036743,68.619263 1015.784180,74.986725 1025.322266,83.627083 
	C1039.228638,96.224625 1049.278931,111.136093 1055.277710,128.829269 
	C1056.422119,132.204681 1057.120483,135.731354 1058.095703,139.593231 
z"/>
<path fill="#314CB0" opacity="1.000000" stroke="none" 
	d="
M851.035156,183.176636 
	C861.635376,224.894485 887.175903,252.091385 928.461731,263.818298 
	C937.677734,266.436005 947.653687,268.233276 957.138428,267.732391 
	C1000.761597,265.428589 1040.052979,240.516251 1055.317383,193.829102 
	C1056.379150,190.581192 1057.111572,187.225555 1058.130737,183.566483 
	C1067.096924,183.193527 1075.932373,183.292755 1084.761353,183.099014 
	C1088.536499,183.016190 1090.496826,184.155365 1090.023315,188.204315 
	C1089.888794,189.355087 1090.005859,190.535156 1090.005859,191.701782 
	C1090.005981,498.858856 1090.007568,806.015930 1089.998901,1113.172974 
	C1089.998535,1122.906494 1090.833862,1121.991333 1081.078125,1121.991577 
	C761.088135,1122.001831 441.098206,1122.000122 121.108223,1122.000000 
	C119.941589,1122.000000 118.758064,1121.870483 117.611336,1122.021240 
	C113.205414,1122.601074 111.398766,1120.723145 111.975983,1116.356567 
	C112.105881,1115.373779 111.993805,1114.359253 111.993805,1113.359253 
	C111.993752,806.202209 111.993713,499.045135 111.993958,191.888077 
	C111.993965,183.153992 111.995361,183.151413 120.551010,183.151611 
	C363.876495,183.156891 607.201965,183.162720 851.035156,183.176636 
M739.618958,333.125244 
	C757.688965,312.975220 776.270325,293.378845 800.209167,278.182190 
	C713.394470,278.182190 627.784119,278.182190 541.643372,278.182190 
	C545.445618,290.582825 544.304749,302.591187 539.889648,314.250793 
	C532.141479,334.712616 520.056702,352.708801 506.666473,369.755219 
	C455.622040,434.737244 404.331421,499.525879 353.128479,564.383423 
	C352.356415,565.361328 351.529114,566.295776 349.881439,568.258545 
	C349.881439,565.547668 349.881409,564.113464 349.881439,562.679199 
	C349.883057,501.348419 349.868896,440.017670 349.897552,378.686890 
	C349.904602,363.657806 350.074951,348.641083 353.116760,333.813019 
	C356.566467,316.996582 361.385071,300.738647 371.601929,286.593811 
	C373.584625,283.848816 375.777832,281.255829 378.080994,278.329651 
	C297.157532,278.329651 216.815613,278.329651 137.696060,278.329651 
	C143.672668,287.996124 150.442093,297.642914 155.851624,308.000000 
	C163.921371,323.450378 163.673508,340.770111 163.842972,357.497833 
	C164.454071,417.822693 164.418213,478.156494 164.284973,538.486145 
	C163.957870,686.582642 163.381714,834.678528 163.061310,982.775024 
	C163.011368,1005.862915 155.710037,1025.993286 140.744476,1043.449585 
	C139.300842,1045.133545 137.847321,1046.809204 136.079330,1048.858521 
	C217.044113,1048.858521 297.263672,1048.858521 376.878937,1048.858521 
	C372.204926,1040.998535 366.811066,1033.398804 362.923431,1025.093872 
	C353.938599,1005.900330 350.290314,985.319519 350.207214,964.266785 
	C349.921082,891.771423 349.962128,819.274841 349.898560,746.778687 
	C349.897522,745.592651 350.149567,744.406372 350.380646,742.359497 
	C360.419434,756.043884 369.886719,768.922729 379.326630,781.821655 
	C422.018524,840.156982 464.817657,898.414429 507.313934,956.891968 
	C518.876160,972.802307 529.288879,989.598145 535.012207,1008.603577 
	C537.181152,1015.805725 537.549011,1023.674683 537.848938,1031.274780 
	C538.077087,1037.055542 536.900452,1042.891602 536.346069,1048.732178 
	C624.427795,1048.732178 712.424805,1048.732178 800.488708,1048.732178 
	C792.284546,1041.245483 783.464355,1034.698730 776.506836,1026.559937 
	C757.248657,1004.032043 737.688660,981.631958 720.169312,957.770752 
	C651.659729,864.460571 583.891907,770.605896 515.849609,676.952576 
	C507.339020,665.238586 498.836517,653.518738 490.265625,641.712463 
	C491.620453,639.944458 492.791992,638.350403 494.029846,636.809692 
	C538.168579,581.868774 582.195618,526.837585 626.493774,472.025513 
	C663.878906,425.767395 701.579590,379.764313 739.618958,333.125244 
M1045.315674,931.500244 
	C1045.315674,781.970947 1045.315674,632.441650 1045.315674,483.196564 
	C977.340820,483.196564 910.222839,483.196564 842.557007,483.196564 
	C843.497437,484.459656 843.964172,485.136230 844.480469,485.772552 
	C853.272644,496.609802 860.318604,508.417114 862.084106,522.477783 
	C863.562988,534.255371 864.866394,546.153564 864.886047,558.000671 
	C865.105774,690.628357 865.092712,823.256531 865.041870,955.884521 
	C865.036499,969.818604 864.478516,983.755554 863.981812,997.684265 
	C863.841919,1001.606628 863.261780,1005.557983 862.446350,1009.403381 
	C859.639709,1022.639038 853.720215,1034.397583 845.109192,1044.819702 
	C844.120544,1046.016235 843.237915,1047.300415 842.251099,1048.617310 
	C917.791443,1048.617310 992.886902,1048.617310 1068.526611,1048.617310 
	C1067.564331,1047.386597 1067.078491,1046.717651 1066.544434,1046.089478 
	C1057.251587,1035.157959 1050.142212,1022.942627 1048.027100,1008.678467 
	C1046.379761,997.569763 1045.987427,986.235474 1045.643677,974.982910 
	C1045.211426,960.831848 1045.396851,946.662048 1045.315674,931.500244 
z"/>
<path fill="#FFFFFF" opacity="1.000000" stroke="none" 
	d="
M739.379761,333.386780 
	C701.579590,379.764313 663.878906,425.767395 626.493774,472.025513 
	C582.195618,526.837585 538.168579,581.868774 494.029846,636.809692 
	C492.791992,638.350403 491.620453,639.944458 490.265625,641.712463 
	C498.836517,653.518738 507.339020,665.238586 515.849609,676.952576 
	C583.891907,770.605896 651.659729,864.460571 720.169312,957.770752 
	C737.688660,981.631958 757.248657,1004.032043 776.506836,1026.559937 
	C783.464355,1034.698730 792.284546,1041.245483 800.488708,1048.732178 
	C712.424805,1048.732178 624.427795,1048.732178 536.346069,1048.732178 
	C536.900452,1042.891602 538.077087,1037.055542 537.848938,1031.274780 
	C537.549011,1023.674683 537.181152,1015.805725 535.012207,1008.603577 
	C529.288879,989.598145 518.876160,972.802307 507.313934,956.891968 
	C464.817657,898.414429 422.018524,840.156982 379.326630,781.821655 
	C369.886719,768.922729 360.419434,756.043884 350.380646,742.359497 
	C350.149567,744.406372 349.897522,745.592651 349.898560,746.778687 
	C349.962128,819.274841 349.921082,891.771423 350.207214,964.266785 
	C350.290314,985.319519 353.938599,1005.900330 362.923431,1025.093872 
	C366.811066,1033.398804 372.204926,1040.998535 376.878937,1048.858521 
	C297.263672,1048.858521 217.044113,1048.858521 136.079330,1048.858521 
	C137.847321,1046.809204 139.300842,1045.133545 140.744476,1043.449585 
	C155.710037,1025.993286 163.011368,1005.862915 163.061310,982.775024 
	C163.381714,834.678528 163.957870,686.582642 164.284973,538.486145 
	C164.418213,478.156494 164.454071,417.822693 163.842972,357.497833 
	C163.673508,340.770111 163.921371,323.450378 155.851624,308.000000 
	C150.442093,297.642914 143.672668,287.996124 137.696060,278.329651 
	C216.815613,278.329651 297.157532,278.329651 378.080994,278.329651 
	C375.777832,281.255829 373.584625,283.848816 371.601929,286.593811 
	C361.385071,300.738647 356.566467,316.996582 353.116760,333.813019 
	C350.074951,348.641083 349.904602,363.657806 349.897552,378.686890 
	C349.868896,440.017670 349.883057,501.348419 349.881439,562.679199 
	C349.881409,564.113464 349.881439,565.547668 349.881439,568.258545 
	C351.529114,566.295776 352.356415,565.361328 353.128479,564.383423 
	C404.331421,499.525879 455.622040,434.737244 506.666473,369.755219 
	C520.056702,352.708801 532.141479,334.712616 539.889648,314.250793 
	C544.304749,302.591187 545.445618,290.582825 541.643372,278.182190 
	C627.784119,278.182190 713.394470,278.182190 800.209167,278.182190 
	C776.270325,293.378845 757.688965,312.975220 739.379761,333.386780 
z"/>
<path fill="#FFFFFF" opacity="1.000000" stroke="none" 
	d="
M1045.315674,932.000244 
	C1045.396851,946.662048 1045.211426,960.831848 1045.643677,974.982910 
	C1045.987427,986.235474 1046.379761,997.569763 1048.027100,1008.678467 
	C1050.142212,1022.942627 1057.251587,1035.157959 1066.544434,1046.089478 
	C1067.078491,1046.717651 1067.564331,1047.386597 1068.526611,1048.617310 
	C992.886902,1048.617310 917.791443,1048.617310 842.251099,1048.617310 
	C843.237915,1047.300415 844.120544,1046.016235 845.109192,1044.819702 
	C853.720215,1034.397583 859.639709,1022.639038 862.446350,1009.403381 
	C863.261780,1005.557983 863.841919,1001.606628 863.981812,997.684265 
	C864.478516,983.755554 865.036499,969.818604 865.041870,955.884521 
	C865.092712,823.256531 865.105774,690.628357 864.886047,558.000671 
	C864.866394,546.153564 863.562988,534.255371 862.084106,522.477783 
	C860.318604,508.417114 853.272644,496.609802 844.480469,485.772552 
	C843.964172,485.136230 843.497437,484.459656 842.557007,483.196564 
	C910.222839,483.196564 977.340820,483.196564 1045.315674,483.196564 
	C1045.315674,632.441650 1045.315674,781.970947 1045.315674,932.000244 
z"/>
</svg>